<?xml version="1.0" encoding="UTF-8" standalone="no"?>
<!-- Created with Inkscape (http://www.inkscape.org/) -->
<svg xmlns:dc="http://purl.org/dc/elements/1.1/" xmlns:cc="http://creativecommons.org/ns#" xmlns:rdf="http://www.w3.org/1999/02/22-rdf-syntax-ns#" xmlns:svg="http://www.w3.org/2000/svg" xmlns="http://www.w3.org/2000/svg" xmlns:xlink="http://www.w3.org/1999/xlink" xmlns:sodipodi="http://sodipodi.sourceforge.net/DTD/sodipodi-0.dtd" xmlns:inkscape="http://www.inkscape.org/namespaces/inkscape" width="614.29224" height="614.29218" id="svg2" version="1.1" inkscape:version="0.48.0 r9654" sodipodi:docname="Documento nuevo 1">
  <defs id="defs4">
    <linearGradient id="linearGradient3860">
      <stop style="stop-color:#e6e6e6;stop-opacity:1;" offset="0" id="stop3862"/>
      <stop style="stop-color:#fafafa;stop-opacity:1;" offset="1" id="stop3864"/>
    </linearGradient>
    <linearGradient inkscape:collect="always" id="linearGradient3848">
      <stop style="stop-color:#ffffff;stop-opacity:1;" offset="0" id="stop3850"/>
      <stop style="stop-color:#ffffff;stop-opacity:0;" offset="1" id="stop3852"/>
    </linearGradient>
    <linearGradient id="linearGradient3813">
      <stop style="stop-color:#008000;stop-opacity:1;" offset="0" id="stop3815"/>
      <stop style="stop-color:#8ebda8;stop-opacity:1;" offset="1" id="stop3817"/>
    </linearGradient>
    <linearGradient inkscape:collect="always" id="linearGradient3801">
      <stop style="stop-color:#ffffff;stop-opacity:1;" offset="0" id="stop3803"/>
      <stop style="stop-color:#ffffff;stop-opacity:0;" offset="1" id="stop3805"/>
    </linearGradient>
    <linearGradient inkscape:collect="always" id="linearGradient3773">
      <stop style="stop-color:#ffffff;stop-opacity:1;" offset="0" id="stop3775"/>
      <stop style="stop-color:#ffffff;stop-opacity:0;" offset="1" id="stop3777"/>
    </linearGradient>
    <linearGradient inkscape:collect="always" xlink:href="#linearGradient3773" id="linearGradient3779" x1="622.16071" y1="741.93976" x2="361.58481" y2="439.08258" gradientUnits="userSpaceOnUse"/>
    <filter inkscape:collect="always" id="filter3781" color-interpolation-filters="sRGB">
      <feGaussianBlur inkscape:collect="always" stdDeviation="3.74625" id="feGaussianBlur3783"/>
    </filter>
    <linearGradient inkscape:collect="always" xlink:href="#linearGradient3773" id="linearGradient3787" gradientUnits="userSpaceOnUse" x1="622.16071" y1="741.93976" x2="361.58481" y2="439.08258"/>
    <linearGradient inkscape:collect="always" xlink:href="#linearGradient3773" id="linearGradient3790" gradientUnits="userSpaceOnUse" x1="622.16071" y1="741.93976" x2="361.58481" y2="439.08258"/>
    <linearGradient inkscape:collect="always" xlink:href="#linearGradient3773" id="linearGradient3794" gradientUnits="userSpaceOnUse" x1="622.16071" y1="741.93976" x2="361.58481" y2="439.08258"/>
    <linearGradient inkscape:collect="always" xlink:href="#linearGradient3801" id="linearGradient3807" x1="360" y1="480.65897" x2="133.91103" y2="263.51611" gradientUnits="userSpaceOnUse"/>
    <filter inkscape:collect="always" id="filter3809" color-interpolation-filters="sRGB">
      <feGaussianBlur inkscape:collect="always" stdDeviation="4.1773119" id="feGaussianBlur3811"/>
    </filter>
    <linearGradient inkscape:collect="always" xlink:href="#linearGradient3813" id="linearGradient3819" x1="179.3042" y1="318.95825" x2="755.04376" y2="916.6308" gradientUnits="userSpaceOnUse"/>
    <filter inkscape:collect="always" id="filter3833" color-interpolation-filters="sRGB">
      <feGaussianBlur inkscape:collect="always" stdDeviation="3.7738135" id="feGaussianBlur3835"/>
    </filter>
    <filter inkscape:collect="always" id="filter3837" color-interpolation-filters="sRGB">
      <feGaussianBlur inkscape:collect="always" stdDeviation="2.8571429" id="feGaussianBlur3839"/>
    </filter>
    <linearGradient inkscape:collect="always" xlink:href="#linearGradient3848" id="linearGradient3854" x1="240.4856" y1="340.75" x2="491.09375" y2="683.60712" gradientUnits="userSpaceOnUse"/>
    <filter inkscape:collect="always" id="filter3856" color-interpolation-filters="sRGB">
      <feGaussianBlur inkscape:collect="always" stdDeviation="2.6262997" id="feGaussianBlur3858"/>
    </filter>
    <linearGradient inkscape:collect="always" xlink:href="#linearGradient3860" id="linearGradient3866" x1="480.69849" y1="635.06354" x2="189.70889" y2="326.4921" gradientUnits="userSpaceOnUse"/>
  </defs>
  <sodipodi:namedview id="base" pagecolor="#ffffff" bordercolor="#666666" borderopacity="1.0" inkscape:pageopacity="0.0" inkscape:pageshadow="2" inkscape:zoom="0.35" inkscape:cx="-172.12699" inkscape:cy="237.87304" inkscape:document-units="px" inkscape:current-layer="layer1" showgrid="false" fit-margin-top="0" fit-margin-left="0" fit-margin-right="0" fit-margin-bottom="0" inkscape:window-width="1280" inkscape:window-height="1002" inkscape:window-x="1272" inkscape:window-y="-8" inkscape:window-maximized="1"/>
  <g inkscape:label="Capa 1" inkscape:groupmode="layer" id="layer1" transform="translate(-47.841273,-155.94305)">
    <path sodipodi:type="arc" style="fill:url(#linearGradient3819);fill-opacity:1;stroke:#008400;stroke-width:4.31099987;stroke-miterlimit:4;stroke-opacity:1;stroke-dasharray:none;filter:url(#filter3837)" id="path3759" sodipodi:cx="382.85715" sodipodi:cy="526.64789" sodipodi:rx="285.71429" sodipodi:ry="285.71429" d="m 668.57144,526.64789 c 0,157.79565 -127.91865,285.71429 -285.71429,285.71429 -157.79565,0 -285.714297,-127.91864 -285.714297,-285.71429 0,-157.79565 127.918647,-285.7143 285.714297,-285.7143 157.79564,0 285.71429,127.91865 285.71429,285.7143 z" transform="matrix(1.0421379,0,0,1.0421378,-44.002559,-85.750536)"/>
    <path sodipodi:type="inkscape:offset" inkscape:radius="11.428572" inkscape:original="M 516.8125 309.21875 C 504.03154 309.21875 491.23093 314.11282 481.4375 323.90625 L 297.59375 507.75 L 263.25 473.375 C 243.66314 453.78815 212.11811 453.78815 192.53125 473.375 C 172.94439 492.96186 172.94439 524.50689 192.53125 544.09375 L 263.25 614.8125 C 282.83686 634.39936 314.35064 634.39936 333.9375 614.8125 C 336.83085 611.91915 339.30521 608.77535 341.34375 605.4375 L 552.15625 394.59375 C 571.74311 375.00689 571.74311 343.49311 552.15625 323.90625 C 542.36282 314.11282 529.59345 309.21875 516.8125 309.21875 z " style="opacity:0.7154471;fill:#008000;fill-opacity:1;stroke:none;filter:url(#filter3833)" id="path3823" d="m 516.8125,297.78125 c -15.69844,0 -31.50058,6.06308 -43.46875,18.03125 l -175.75,175.75 -26.25,-26.25 a 11.429715,11.429715 0 0 0 0,-0.0312 c -23.92518,-23.92517 -62.98107,-23.92517 -86.90625,0 -23.92518,23.92518 -23.92518,62.98107 0,86.90625 l 70.71875,70.71875 c 23.92088,23.92088 62.95412,23.92088 86.875,0 3.06604,-3.06604 5.68748,-6.43331 8,-9.96875 L 560.25,402.6875 c 23.92088,-23.92088 23.92088,-62.95412 0,-86.875 -11.95958,-11.95958 -27.73907,-18.03125 -43.4375,-18.03125 z"/>
    <path style="fill:url(#linearGradient3866);fill-opacity:1;stroke:none" d="m 552.16161,323.89515 c -19.58686,-19.58686 -51.12382,-19.58686 -70.71068,0 L 297.60317,507.74291 263.2422,473.38194 c -19.58686,-19.58685 -51.12382,-19.58685 -70.71068,0 -19.58686,19.58686 -19.58686,51.12382 0,70.71068 l 70.71068,70.71068 c 19.58686,19.58686 51.12382,19.58686 70.71068,0 2.89335,-2.89335 5.34188,-6.03132 7.38042,-9.36917 l 210.82831,-210.8283 c 19.58686,-19.58686 19.58686,-51.12382 0,-70.71068 z" id="rect2985" inkscape:connector-curvature="0"/>
    <path sodipodi:type="inkscape:offset" inkscape:radius="20.603149" inkscape:original="M 568.875 589.96875 C 547.38565 608.13432 521.28334 621.30113 490.78125 627.1875 C 403.45134 644.04064 336.66386 671.27465 285.28125 701.5625 C 307.36285 707.99092 330.69129 711.53125 354.96875 711.53125 C 446.36795 711.53125 525.73096 662.90796 568.875 589.96875 z " style="opacity:0.45528451;fill:url(#linearGradient3794);fill-opacity:1;stroke:none;filter:url(#filter3781)" id="path3792" d="m 568.96875,569.375 a 20.60521,20.60521 0 0 0 -13.40625,4.84375 c -18.95606,16.0241 -41.65084,27.5324 -68.6875,32.75 -89.46573,17.26532 -158.60608,45.33348 -212.0625,76.84375 a 20.60521,20.60521 0 0 0 4.71875,37.53125 c 23.87156,6.94951 49.15703,10.78125 75.4375,10.78125 98.70629,0 184.88706,-52.6412 231.625,-131.65625 a 20.60521,20.60521 0 0 0 -17.625,-31.09375 z" transform="matrix(0.98480776,-0.17364818,0.17364818,0.98480776,-77.720184,72.570353)"/>
    <path sodipodi:type="inkscape:offset" inkscape:radius="7.733779" inkscape:original="M 331.875 196.875 C 194.77939 208.53792 87.71875 322.88862 87.71875 463.09375 C 87.71875 468.35651 87.925223 473.56869 88.21875 478.75 C 144.78304 449.7006 201.74519 395.21308 244.15625 294.96875 C 264.04067 247.96921 294.75114 216.30753 331.875 196.875 z " style="opacity:0.76422765;fill:url(#linearGradient3807);fill-opacity:1;stroke:none;filter:url(#filter3809)" id="path3799" d="M 331.21875,189.15625 C 190.20778,201.15226 80,318.95161 80,463.09375 c 0,5.46504 0.201491,10.8245 0.5,16.09375 a 7.7345523,7.7345523 0 0 0 11.25,6.4375 c 58.1833,-29.88087 116.5438,-86.04954 159.53125,-187.65625 19.25667,-45.51577 48.56898,-75.60544 84.1875,-94.25 a 7.7345523,7.7345523 0 0 0 -4.25,-14.5625 z" transform="matrix(0.9961947,0.08715574,-0.08715574,0.9961947,47.382626,-28.42951)"/>
    <path style="opacity:0.90243901;fill:url(#linearGradient3854);fill-opacity:1;stroke:none;filter:url(#filter3856)" d="m 516.8125,326.28125 c -8.42439,0 -16.76653,3.14153 -23.3125,9.6875 L 333.84375,495.625 c 92.79406,-29.61914 165.46182,-90.44862 197.25,-166.0625 -4.50692,-2.1877 -9.36855,-3.28125 -14.28125,-3.28125 z M 227.875,475.59375 c -8.37129,0 -16.72696,3.28945 -23.28125,9.84375 -8.21853,8.21853 -11.27431,19.30625 -9.1875,29.65625 3.42714,0.0802 6.86082,0.125 10.3125,0.125 23.85786,0 47.14077,-1.92173 69.625,-5.59375 L 251.1875,485.4375 c -6.55429,-6.5543 -14.94121,-9.84375 -23.3125,-9.84375 z" id="path3843" inkscape:connector-curvature="0"/>
  </g>
  <metadata>
    <rdf:RDF>
      <cc:Work>
        <dc:format>image/svg+xml</dc:format>
        <dc:type rdf:resource="http://purl.org/dc/dcmitype/StillImage"/>
        <cc:license rdf:resource="http://creativecommons.org/licenses/publicdomain/"/>
        <dc:publisher>
          <cc:Agent rdf:about="http://openclipart.org/">
            <dc:title>Open Clip Art Library</dc:title>
          </cc:Agent>
        </dc:publisher>
        <dc:title>OK Button</dc:title>
        <dc:date>2011-02-15T22:41:42</dc:date>
        <dc:description>OK Button</dc:description>
        <dc:source>http://openclipart.org/detail/118507/ok-button-by-jabernal</dc:source>
        <dc:creator>
          <cc:Agent>
            <dc:title>jabernal</dc:title>
          </cc:Agent>
        </dc:creator>
        <dc:subject>
          <rdf:Bag>
            <rdf:li>bien</rdf:li>
            <rdf:li>botón</rdf:li>
            <rdf:li>button</rdf:li>
            <rdf:li>clip art</rdf:li>
            <rdf:li>clipart</rdf:li>
            <rdf:li>ok</rdf:li>
          </rdf:Bag>
        </dc:subject>
      </cc:Work>
      <cc:License rdf:about="http://creativecommons.org/licenses/publicdomain/">
        <cc:permits rdf:resource="http://creativecommons.org/ns#Reproduction"/>
        <cc:permits rdf:resource="http://creativecommons.org/ns#Distribution"/>
        <cc:permits rdf:resource="http://creativecommons.org/ns#DerivativeWorks"/>
      </cc:License>
    </rdf:RDF>
  </metadata>
</svg>
